<svg fill="none" height="100%" width="100%" viewBox="0 0 1000 1000" xmlns:xlink="http://www.w3.org/1999/xlink" xmlns="http://www.w3.org/2000/svg"><defs><filter id="i0"><feColorMatrix values="0 0 0 0 1 0 0 0 0 1 0 0 0 0 1 0 0 0 1 0" type="matrix" /></filter><mask height="20000" width="20000" y="-10000" x="-10000" maskContentUnits="userSpaceOnUse" maskUnits="userSpaceOnUse" style="mask-type: alpha" mask-type="alpha" id="i1"><g transform="matrix(1,0,0,1,-388.879,-248.502)"><g filter="url(#i0)"><g transform="translate(224,1040)"><animateMotion repeatCount="indefinite" dur="1.92s" begin="0s" calcMode="spline" keyTimes="0; 0.541667; 0.729167; 0.770833; 0.791667; 0.8125; 0.916667; 1" keySplines="0 0 1 1; 0 0 1 1; 0 0 1 1; 0 0 1 1; 0 0 1 1; 0 0 1 1; 0 0 1 1" keyPoints="0; 0; 0.523; 0.713; 0.89; 0.934; 1; 1" path="M0 0 C22.376 -50.878 60.901 -198.916 109.395 -305.479 C112.977 -313.351 148.445 -383.475 166.383 -408.962 C171.249 -415.875 226.484 -463.361 245.812 -484.702 C265.38 -506.309 249.043 -501.767 253.984 -507.804 C287.389 -548.621 260.847 -518.671 276 -540" fill="freeze" /><g transform="scale(1,1) translate(0,0)"><g id="i2"><path fill="#ffffff" d="M84,-272C-248,-120,-90,244,-90,244C-90,244,3,301,2,292C-22.878,68.097,228,50,228,50C228,50,398.728,-416.092,84,-272Z" /></g></g></g></g></g></mask></defs><g visibility="hidden" id="i3"><animate repeatCount="indefinite" begin="0s" calcMode="discrete" dur="1.92s" values="hidden; visible; visible" keyTimes="0; 0.083; 1" attributeName="visibility" /><g transform="translate(460.531,517.973)"><g transform="scale(0,0)"><animateTransform repeatCount="indefinite" type="scale" attributeName="transform" dur="1.92s" begin="0s" calcMode="spline" values="0 0; 0 0; 1.15 1.15; 1 1; 1 1" keyTimes="0; 0.083333; 0.333333; 0.5625; 1" keySplines="0 0 1 1; 0.167 0.167 0.667 1; 0.333 0 0.833 0.833; 0 0 1 1" fill="freeze" /><g transform="translate(-236.985,-236.986)"><g id="i4" transform="matrix(1,0,0,1,236.985,236.986)"><path fill="#ff6600" d="M236.735,0C236.735,130.745,130.745,236.736,0.002,236.736C-130.744,236.736,-236.735,130.745,-236.735,0C-236.735,-130.745,-130.744,-236.736,0.002,-236.736C130.745,-236.736,236.735,-130.745,236.735,0Z" /></g></g></g></g></g><g mask="url(#i1)" transform="matrix(1,0,0,1,388.879,248.502)" visibility="hidden" id="i5"><animate repeatCount="indefinite" begin="0s" calcMode="discrete" dur="1.92s" values="hidden; visible; visible" keyTimes="0; 0.417; 1" attributeName="visibility" /><g id="i4" transform="matrix(1,0,0,1,141.341,243.622)"><path fill="#161b15" fill-rule="evenodd" d="M137.783,51.764C135.628,51.949,132.452,52.168,128.415,52.561C124.359,52.82,119.516,53.673,113.928,54.577C108.3,55.323,102.105,56.92,95.301,58.532C93.585,58.895,91.876,59.416,90.14,59.954C88.396,60.487,86.619,61.025,84.814,61.576C83.003,62.112,81.178,62.711,79.312,63.3C77.477,63.963,75.639,64.706,73.757,65.422C73.052,65.678,72.333,65.978,71.627,66.247C71.054,66.151,70.462,66.046,69.853,65.945C68.782,65.763,67.654,65.569,66.476,65.366C65.296,65.176,64.075,64.775,62.803,64.473C60.274,63.741,57.484,63.282,54.641,62.203C51.78,61.213,48.701,60.342,45.621,58.918C44.062,58.273,42.468,57.613,40.83,56.938C39.211,56.235,37.612,55.371,35.951,54.572C29.282,51.388,22.519,47.062,15.578,42.302C12.23,39.723,8.65,37.293,5.334,34.343C4.484,33.63,3.633,32.914,2.778,32.196C1.918,31.482,1.048,30.777,0.238,29.987C-1.417,28.446,-3.089,26.893,-4.77,25.329C-11.037,19.104,-17.33,12.48,-22.999,5.141C-22.941,5.072,-22.89,4.991,-22.831,4.92C-16.393,-3.473,-9.681,-11.226,-2.809,-18.111C4.084,-24.968,11.011,-31.064,17.718,-36.321C24.451,-41.546,30.895,-46.027,36.777,-49.751C42.674,-53.452,47.954,-56.486,52.384,-58.865C56.819,-61.216,60.348,-63.021,62.785,-64.186C65.223,-65.356,66.519,-65.983,66.519,-65.983C66.519,-65.983,65.134,-65.577,62.564,-64.716C60.005,-63.848,56.233,-62.576,51.536,-60.672C46.845,-58.773,41.166,-56.344,34.876,-53.087C28.565,-49.865,21.585,-45.9,14.337,-40.985C7.063,-36.1,-0.525,-30.325,-7.971,-23.534C-14.973,-17.205,-21.935,-10.068,-28.465,-2.13C-32.606,-7.845,-36.543,-13.777,-40.016,-19.985C-40.016,-19.985,-41.883,-23.153,-41.883,-23.153C-42.482,-24.219,-43.024,-25.319,-43.601,-26.397C-44.718,-28.573,-45.888,-30.729,-46.972,-32.912C-48.957,-37.365,-51.169,-41.703,-52.85,-46.23C-54.744,-50.667,-56.205,-55.217,-57.771,-59.682C-58.546,-61.916,-59.092,-64.198,-59.762,-66.437C-60.397,-68.679,-61.087,-70.895,-61.536,-73.145C-62.052,-75.387,-62.562,-77.605,-63.068,-79.807C-63.501,-82.018,-63.819,-84.226,-64.217,-86.407C-65.108,-90.754,-65.343,-95.074,-65.881,-99.268C-66.14,-101.368,-66.124,-103.447,-66.258,-105.493C-66.332,-107.544,-66.518,-109.568,-66.501,-111.553C-66.48,-113.543,-66.462,-115.501,-66.442,-117.417C-66.435,-118.382,-66.421,-119.336,-66.413,-120.281C-66.388,-121.225,-66.274,-122.149,-66.21,-123.076C-66.058,-124.919,-65.914,-126.727,-65.769,-128.494C-65.688,-129.372,-65.649,-130.256,-65.532,-131.116C-65.408,-131.972,-65.284,-132.817,-65.157,-133.652C-64.918,-135.328,-64.683,-136.963,-64.459,-138.552C-64.343,-139.349,-64.231,-140.136,-64.122,-140.913C-63.954,-141.672,-63.788,-142.421,-63.628,-143.16C-62.968,-146.127,-62.354,-148.9,-61.788,-151.469C-61.051,-154,-60.371,-156.323,-59.762,-158.422C-59.45,-159.481,-59.155,-160.479,-58.881,-161.418C-58.543,-162.334,-58.226,-163.192,-57.929,-163.992C-57.906,-164.063,-57.883,-164.127,-57.855,-164.198C-50.148,-173.878,-42.266,-182.647,-34.528,-190.468C-25.554,-199.6,-16.671,-207.328,-8.631,-213.979C-4.536,-217.211,-0.766,-220.336,2.902,-222.984C6.546,-225.66,9.827,-228.234,12.967,-230.301C16.064,-232.435,18.828,-234.347,21.232,-236.005C23.694,-237.587,25.786,-238.932,27.485,-240.021C30.884,-242.205,32.699,-243.372,32.699,-243.372C32.699,-243.372,30.788,-242.372,27.213,-240.496C25.421,-239.554,23.211,-238.394,20.613,-237.03C18.057,-235.591,15.147,-233.885,11.882,-231.973C8.576,-230.128,5.105,-227.792,1.238,-225.365C-2.669,-222.994,-6.619,-220.029,-10.963,-217.023C-13.156,-215.543,-15.28,-213.834,-17.524,-212.146C-19.738,-210.422,-22.09,-208.737,-24.373,-206.846C-26.652,-204.942,-28.989,-202.989,-31.385,-200.994C-33.79,-199.006,-36.082,-196.785,-38.519,-194.619C-48.133,-185.815,-58.036,-175.655,-67.501,-164.022C-76.988,-152.429,-86.156,-139.464,-94.316,-125.262C-102.493,-111.078,-109.962,-95.826,-116.07,-79.741C-122.26,-63.696,-127.175,-46.897,-131.07,-29.896C-134.881,-12.876,-137.414,4.4,-139.074,21.444C-139.531,25.707,-139.787,29.967,-140.127,34.199C-140.327,38.433,-140.602,42.648,-140.718,46.839C-141.02,55.224,-141.091,63.503,-140.998,71.647C-140.858,87.93,-139.706,103.632,-138.221,118.451C-136.731,133.276,-134.618,147.198,-132.338,159.973C-130.069,172.756,-127.493,184.373,-124.992,194.598C-122.499,204.835,-119.98,213.667,-117.799,220.897C-115.626,228.133,-113.666,233.738,-112.331,237.556C-110.977,241.367,-110.191,243.372,-110.191,243.372C-110.191,243.372,-110.801,241.303,-111.816,237.399C-112.842,233.492,-114.202,227.729,-115.877,220.392C-117.533,213.047,-119.344,204.094,-121.255,193.801C-122.255,188.277,-123.247,182.352,-124.217,176.084C-122.894,178.384,-121.298,180.816,-119.29,183.154C-117.338,185.551,-114.949,187.797,-112.337,189.955C-110.994,190.979,-109.627,192.042,-108.144,192.956C-106.707,193.944,-105.164,194.789,-103.602,195.629C-100.454,197.254,-97.129,198.645,-93.727,199.732C-92.024,200.242,-90.312,200.717,-88.596,201.126C-88.518,203.322,-88.421,205.454,-88.312,207.498C-87.977,214.545,-87.407,220.666,-86.881,225.7C-86.371,230.732,-85.776,234.664,-85.39,237.343C-85.174,238.676,-85.009,239.701,-84.9,240.392C-84.857,240.656,-84.828,240.854,-84.799,241.021C-84.802,241.055,-84.799,241.098,-84.782,241.133C-84.782,241.143,-84.775,241.161,-84.775,241.171C-84.771,241.166,-84.771,241.153,-84.771,241.141C-84.761,241.156,-84.755,241.166,-84.735,241.171C-84.74,240.993,-84.746,240.732,-84.751,240.379C-84.766,239.681,-84.788,238.643,-84.816,237.292C-84.89,234.591,-84.898,230.631,-84.9,225.598C-84.885,220.57,-84.735,214.462,-84.494,207.473C-84.425,205.698,-84.345,203.865,-84.251,201.981C-83.972,202.027,-83.69,202.085,-83.411,202.124C-81.695,202.408,-79.983,202.598,-78.292,202.732C-76.601,202.875,-74.933,202.979,-73.291,202.982C-66.726,203.121,-60.661,202.347,-55.593,201.273C-53.062,200.705,-50.773,200.095,-48.778,199.438C-47.577,199.059,-46.502,198.661,-45.525,198.277C-47.246,204.472,-48.458,210.288,-49.433,215.462C-50.43,221.044,-51.087,225.936,-51.465,229.978C-51.897,234.012,-52.012,237.203,-52.088,239.369C-52.162,241.537,-52.114,242.692,-52.114,242.692C-52.114,242.692,-51.937,241.554,-51.516,239.43C-51.128,237.31,-50.437,234.215,-49.506,230.308C-48.607,226.393,-47.257,221.702,-45.721,216.355C-44.871,213.7,-44.046,210.854,-42.985,207.917C-42.482,206.442,-41.964,204.929,-41.433,203.383C-40.87,201.849,-40.291,200.278,-39.705,198.678C-37.257,192.301,-34.416,185.48,-31.049,178.458C-27.764,171.395,-23.746,164.238,-19.416,156.983C-17.156,153.406,-14.935,149.732,-12.398,146.201C-10.007,142.571,-7.288,139.118,-4.635,135.579C-3.345,133.779,-1.84,132.139,-0.428,130.423C1.021,128.735,2.397,126.97,3.898,125.315C5.418,123.673,6.939,122.03,8.462,120.387C9.229,119.567,9.976,118.73,10.756,117.928C10.756,117.928,13.183,115.592,13.183,115.592C13.183,115.592,17.993,110.895,17.993,110.895C19.627,109.357,21.364,107.941,23.036,106.46C24.745,105.023,26.363,103.477,28.124,102.117C29.881,100.751,31.633,99.387,33.379,98.032C40.394,92.652,47.689,87.867,54.962,83.561C55.863,83.018,56.748,82.444,57.662,81.932C58.586,81.441,59.51,80.954,60.429,80.469C62.27,79.502,64.081,78.535,65.873,77.555C66.767,77.072,67.663,76.587,68.551,76.105C69.432,75.622,70.366,75.249,71.264,74.818C73.077,73.98,74.867,73.147,76.631,72.338C78.401,71.528,80.132,70.693,81.874,69.936C83.633,69.246,85.381,68.585,87.079,67.892C88.787,67.202,90.457,66.524,92.105,65.864C93.747,65.186,95.367,64.531,96.999,64.033C103.491,61.942,109.378,59.682,114.79,58.319C120.167,56.859,124.823,55.318,128.766,54.526C132.686,53.635,135.757,52.841,137.864,52.338C139.969,51.805,141.092,51.523,141.092,51.523C141.092,51.523,139.939,51.604,137.783,51.764ZM-84.799,241.003C-84.807,240.983,-84.811,240.973,-84.804,240.983C-84.798,240.973,-84.799,240.983,-84.799,241.003ZM-107.012,-76.318C-105.484,-80.205,-104.077,-84.13,-102.407,-87.92C-101.615,-89.827,-100.823,-91.736,-100.033,-93.637C-99.226,-95.531,-98.343,-97.382,-97.505,-99.253C-96.645,-101.114,-95.834,-102.987,-94.946,-104.815C-94.039,-106.635,-93.139,-108.453,-92.238,-110.263C-90.499,-113.914,-88.514,-117.4,-86.635,-120.908C-79.064,-134.561,-70.815,-147.26,-62.131,-158.707C-62.988,-156.813,-63.925,-154.749,-64.943,-152.507C-65.923,-149.996,-66.82,-147.219,-67.868,-144.272C-69.795,-138.326,-71.594,-131.454,-72.752,-123.792C-72.905,-122.838,-73.114,-121.875,-73.23,-120.898C-73.332,-119.911,-73.436,-118.918,-73.54,-117.92C-73.746,-115.912,-73.953,-113.866,-74.166,-111.784C-74.398,-109.697,-74.327,-107.572,-74.419,-105.409C-74.439,-103.249,-74.602,-101.045,-74.502,-98.824C-74.401,-96.597,-74.298,-94.341,-74.197,-92.058C-74.141,-89.766,-73.865,-87.471,-73.596,-85.145C-73.329,-82.823,-73.111,-80.456,-72.751,-78.098C-72.327,-75.747,-71.9,-73.373,-71.472,-70.979C-69.568,-61.449,-66.936,-51.691,-63.202,-42.181C-61.496,-37.36,-59.315,-32.693,-57.205,-27.976C-56.073,-25.654,-54.857,-23.369,-53.684,-21.059C-53.082,-19.911,-52.514,-18.744,-51.887,-17.611C-51.887,-17.611,-49.933,-14.247,-49.933,-14.247C-45.685,-6.786,-40.834,0.312,-35.643,7.027C-37.067,8.946,-38.473,10.883,-39.854,12.861C-41.477,15.189,-43.066,17.555,-44.622,19.959C-46.153,22.381,-47.647,24.841,-49.102,27.332C-54.936,37.311,-60.166,47.839,-64.708,58.641C-64.764,58.781,-64.814,58.923,-64.87,59.063C-69.409,54.227,-73.812,49.149,-77.902,43.813C-82.342,37.977,-86.427,31.873,-90.212,25.712C-93.87,19.477,-97.251,13.199,-100.201,6.948C-101.617,3.8,-103.048,0.711,-104.299,-2.377C-104.934,-3.917,-105.558,-5.445,-106.179,-6.953C-106.74,-8.484,-107.297,-9.995,-107.846,-11.488C-110.006,-17.472,-111.764,-23.242,-113.3,-28.611C-113.984,-31.32,-114.642,-33.917,-115.264,-36.387C-115.819,-38.878,-116.398,-41.236,-116.857,-43.47C-116.944,-43.912,-117.017,-44.323,-117.098,-44.76C-114.217,-55.496,-110.891,-66.069,-107.012,-76.318ZM-129.446,22.399C-127.707,5.72,-125.121,-11.14,-121.29,-27.71C-120.825,-29.792,-120.343,-31.871,-119.848,-33.942C-119.584,-31.843,-119.233,-29.667,-118.934,-27.4C-118.431,-24.575,-117.921,-21.617,-117.304,-18.573C-116.593,-15.552,-115.92,-12.401,-114.981,-9.233C-113.311,-2.828,-111.022,3.783,-108.351,10.512C-106.939,13.848,-105.514,17.245,-103.839,20.581C-102.285,23.975,-100.421,27.268,-98.611,30.622C-94.821,37.235,-90.518,43.699,-85.865,49.901C-81.1,56.026,-75.962,61.86,-70.532,67.23C-69.917,67.816,-69.305,68.395,-68.693,68.977C-71.45,76.486,-73.921,84.066,-76.074,91.637C-79.257,102.693,-81.559,113.782,-83.471,124.528C-83.702,125.823,-83.895,127.1,-84.105,128.387C-87.015,126.189,-89.823,123.81,-92.51,121.286C-96.252,117.844,-99.749,114.117,-102.968,110.225C-106.169,106.326,-109.221,102.368,-111.904,98.316C-113.323,96.346,-114.506,94.259,-115.816,92.31C-117.012,90.286,-118.254,88.347,-119.338,86.377C-120.466,84.429,-121.536,82.515,-122.524,80.636C-123.56,78.778,-124.486,76.941,-125.377,75.171C-126.311,73.422,-127.116,71.703,-127.911,70.07C-128.733,68.453,-129.452,66.887,-130.135,65.417C-130.807,64.003,-131.43,62.67,-131.997,61.429C-131.638,48.634,-130.807,35.572,-129.446,22.399ZM-90.689,190.179C-93.674,189.28,-96.53,188.097,-99.314,186.896C-102.072,185.624,-104.693,184.22,-107.165,182.715C-109.575,181.144,-111.917,179.572,-113.945,177.823C-115.017,177.008,-115.953,176.094,-116.898,175.236C-117.883,174.413,-118.672,173.472,-119.538,172.636C-121.178,170.905,-122.656,169.229,-123.869,167.655C-124.625,166.767,-125.26,165.909,-125.842,165.109C-126.123,163.129,-126.401,161.131,-126.678,159.1C-128.318,146.341,-129.743,132.482,-130.792,117.816C-131.749,103.467,-132.265,88.329,-132.188,72.698C-131.759,74.216,-131.293,75.773,-130.755,77.392C-130.133,79.332,-129.43,81.342,-128.648,83.404C-127.901,85.483,-127.009,87.583,-126.09,89.75C-125.214,91.934,-124.09,94.082,-123.054,96.331C-122.498,97.44,-121.91,98.547,-121.316,99.664C-120.732,100.796,-120.11,101.914,-119.45,103.026C-116.906,107.526,-113.903,111.995,-110.549,116.321C-107.239,120.684,-103.417,124.79,-99.338,128.626C-95.22,132.416,-90.828,135.957,-86.141,138.894C-85.997,138.998,-85.845,139.08,-85.695,139.179C-86.424,144.815,-87.002,150.347,-87.464,155.714C-88.353,165.66,-88.709,175.094,-88.798,183.789C-88.836,186.16,-88.843,188.468,-88.825,190.722C-89.447,190.537,-90.071,190.377,-90.689,190.179ZM-32.976,164.086C-34.713,167.95,-36.441,171.705,-37.883,175.47C-39.429,179.181,-40.734,182.87,-41.965,186.445C-42.595,188.224,-43.086,190.019,-43.635,191.755C-44.031,193.058,-44.426,194.34,-44.786,195.614C-46.116,195.632,-47.657,195.632,-49.381,195.629C-51.402,195.635,-53.678,195.584,-56.13,195.515C-58.585,195.401,-61.228,195.304,-63.997,195.061C-66.772,194.865,-69.671,194.54,-72.636,194.142C-75.604,193.758,-78.624,193.19,-81.663,192.571C-82.328,192.428,-82.994,192.25,-83.661,192.093C-83.483,189.488,-83.292,186.81,-83.075,184.058C-82.365,175.503,-81.343,166.262,-80.049,156.536C-79.47,152.288,-78.788,147.935,-78.044,143.528C-77.178,143.977,-76.317,144.427,-75.437,144.815C-74.218,145.353,-73.003,145.884,-71.8,146.412C-66.934,148.367,-62.114,149.923,-57.455,150.959C-56.3,151.263,-55.138,151.443,-54.005,151.664C-52.868,151.873,-51.759,152.116,-50.652,152.261C-48.427,152.51,-46.312,152.898,-44.245,152.997C-40.135,153.338,-36.373,153.393,-33.05,153.286C-31.387,153.203,-29.844,153.18,-28.41,153.05C-28.029,153.01,-27.678,152.977,-27.312,152.939C-28.338,154.708,-29.205,156.551,-30.144,158.331C-31.109,160.263,-32.148,162.139,-32.976,164.086ZM3.593,110.941C2.778,111.797,1.996,112.677,1.196,113.543C-0.393,115.287,-1.985,117.024,-3.569,118.763C-5.14,120.509,-6.561,122.375,-8.046,124.183C-9.493,126.019,-11.033,127.77,-12.35,129.687C-13.711,131.565,-15.063,133.436,-16.411,135.297C-17.794,137.138,-18.93,139.128,-20.192,141.02C-21.393,142.946,-22.698,144.789,-23.782,146.752C-24.498,148.003,-25.204,149.24,-25.915,150.479C-26.676,150.377,-27.47,150.273,-28.324,150.159C-29.705,149.935,-31.198,149.697,-32.794,149.44C-35.973,148.907,-39.524,148.217,-43.33,147.288C-45.246,146.876,-47.191,146.259,-49.217,145.729C-51.215,145.084,-53.299,144.498,-55.381,143.729C-59.572,142.294,-63.831,140.426,-68.132,138.339C-70.879,136.957,-73.604,135.394,-76.295,133.718C-75.823,131.223,-75.332,128.707,-74.821,126.176C-72.696,115.714,-69.91,105.049,-66.785,94.333C-64.977,88.209,-62.948,82.099,-60.739,76.029C-58.348,78.037,-55.863,79.88,-53.454,81.733C-47.536,85.963,-41.601,89.725,-35.717,92.807C-34.277,93.632,-32.802,94.348,-31.35,95.052C-29.903,95.757,-28.48,96.461,-27.068,97.115C-24.177,98.299,-21.426,99.514,-18.722,100.515C-17.364,100.999,-16.034,101.479,-14.734,101.941C-13.442,102.411,-12.175,102.87,-10.903,103.2C-8.372,103.901,-6.011,104.675,-3.739,105.199C-1.464,105.724,0.646,106.25,2.618,106.666C4.263,106.945,5.774,107.204,7.188,107.44C7.188,107.44,6.126,108.468,6.126,108.468C6.126,108.468,3.593,110.941,3.593,110.941ZM50.623,75.795C42.857,79.964,35.025,84.706,27.561,90.235C25.7,91.624,23.836,93.018,21.96,94.419C20.074,95.805,18.363,97.42,16.556,98.923C14.781,100.466,12.948,101.952,11.222,103.554C11.222,103.554,8.899,105.792,8.899,105.792C8.775,105.747,8.656,105.706,8.527,105.661C6.978,105.125,5.264,104.533,3.4,103.886C1.562,103.134,-0.434,102.393,-2.556,101.568C-6.77,99.842,-11.434,97.725,-16.42,95.265C-18.908,94.031,-21.421,92.581,-24.048,91.159C-26.58,89.56,-29.319,88.148,-31.949,86.371C-33.272,85.506,-34.615,84.625,-35.975,83.734C-37.318,82.822,-38.628,81.828,-39.976,80.865C-42.7,78.968,-45.309,76.803,-48.041,74.714C-51.102,72.165,-54.146,69.487,-57.15,66.689C-56.583,65.288,-56.04,63.881,-55.451,62.49C-51.153,52.031,-46.236,41.83,-40.719,32.178C-37.188,26.06,-33.522,20.101,-29.661,14.41C-28.935,15.286,-28.198,16.164,-27.469,17.032C-25.743,18.875,-24.018,20.711,-22.307,22.536C-20.636,24.394,-18.81,26.09,-17.028,27.799C-16.134,28.649,-15.242,29.497,-14.353,30.34C-13.472,31.185,-12.579,32.018,-11.634,32.785C-9.778,34.361,-7.937,35.91,-6.114,37.456C-4.314,39.02,-2.338,40.345,-0.484,41.767C3.204,44.641,7.125,47.042,10.847,49.476C18.506,54.028,26.017,57.885,33.308,60.563C35.129,61.246,36.87,61.982,38.637,62.571C40.411,63.099,42.148,63.622,43.839,64.13C47.19,65.222,50.518,65.763,53.575,66.435C55.108,66.765,56.583,67.085,58.048,67.225C59.5,67.395,60.899,67.565,62.244,67.722C63.595,67.852,64.862,68.075,66.116,68.103C66.387,68.111,66.642,68.121,66.908,68.126C61.533,70.368,56.089,72.922,50.623,75.795Z" /></g></g><g display="none" visibility="hidden" id="i6"><animate repeatCount="indefinite" begin="0s" calcMode="discrete" dur="1.92s" values="hidden; visible; visible" keyTimes="0; 0.458; 1" attributeName="visibility" /><g transform="translate(224,1040)"><animateMotion repeatCount="indefinite" dur="1.92s" begin="0s" calcMode="spline" keyTimes="0; 0.541667; 0.729167; 0.770833; 0.791667; 0.8125; 0.916667; 1" keySplines="0 0 1 1; 0 0 1 1; 0 0 1 1; 0 0 1 1; 0 0 1 1; 0 0 1 1; 0 0 1 1" keyPoints="0; 0; 0.523; 0.713; 0.89; 0.934; 1; 1" path="M0 0 C22.376 -50.878 60.901 -198.916 109.395 -305.479 C112.977 -313.351 148.445 -383.475 166.383 -408.962 C171.249 -415.875 226.484 -463.361 245.812 -484.702 C265.38 -506.309 249.043 -501.767 253.984 -507.804 C287.389 -548.621 260.847 -518.671 276 -540" fill="freeze" /><g transform="scale(1,1) translate(0,0)"><g id="i2"><path fill="#ffffff" d="M84,-272C-248,-120,-90,244,-90,244C-90,244,3,301,2,292C-22.878,68.097,228,50,228,50C228,50,398.728,-416.092,84,-272Z" /></g></g></g></g><g id="i7"><g transform="translate(-134.038,517.682)"><animateMotion repeatCount="indefinite" dur="1.92s" begin="0s" calcMode="spline" keyTimes="0; 0.1875; 0.333333; 0.479167; 0.666667; 0.770833; 0.833333; 1" keySplines="0 0 1 1; 0 0 1 1; 0 0 1 1; 0 0 1 1; 0 0 1 1; 0 0 1 1; 0 0 1 1" keyPoints="0; 0.304; 0.482; 0.617; 0.807; 0.922; 1; 1" path="M0 0 C0 0 278 213 278 213 C278 213 310.521 84.619 422.625 91 C455.697 92.883 517.292 210.333 538.625 179 C548.342 164.728 574.337 47.954 620.514 -23.556 C648.373 -66.699 695.798 -105.047 712.625 -117 C740.14 -136.545 772.731 -145.72 795.826 -150.059" fill="freeze" /><g transform="rotate(-644)"><animateTransform repeatCount="indefinite" type="rotate" attributeName="transform" dur="1.92s" begin="0s" calcMode="spline" values="-644; -359; 0; 0" keyTimes="0; 0.520833; 0.833333; 1" keySplines="0 0 1 1; 0 0 1 1; 0 0 1 1" fill="freeze" /><g transform="scale(0.65,0.65)"><animateTransform repeatCount="indefinite" type="scale" attributeName="transform" dur="1.92s" begin="0s" calcMode="spline" values="0.65 0.65; 0.65 0.65; 0.975 0.975; 0.975 0.975" keyTimes="0; 0.520833; 0.833333; 1" keySplines="0 0 1 1; 0 0 1 1; 0 0 1 1" fill="freeze" /><g transform="translate(-166.438,-166.438)"><g id="i4" transform="matrix(1,0,0,1,166.438,166.438)"><path fill="#f2f2ef" d="M166.188,0.003C166.188,91.782,91.784,166.188,-0.003,166.188C-91.784,166.188,-166.188,91.782,-166.188,0.003C-166.188,-91.784,-91.784,-166.188,-0.003,-166.188C91.784,-166.188,166.188,-91.784,166.188,0.003Z" /></g></g></g></g></g></g><g id="i7"><g transform="translate(-134.038,517.682)"><animateMotion repeatCount="indefinite" dur="1.92s" begin="0s" calcMode="spline" keyTimes="0; 0.1875; 0.333333; 0.479167; 0.666667; 0.770833; 0.833333; 1" keySplines="0 0 1 1; 0 0 1 1; 0 0 1 1; 0 0 1 1; 0 0 1 1; 0 0 1 1; 0 0 1 1" keyPoints="0; 0.304; 0.482; 0.617; 0.807; 0.922; 1; 1" path="M0 0 C0 0 278 213 278 213 C278 213 310.521 84.619 422.625 91 C455.697 92.883 517.292 210.333 538.625 179 C548.342 164.728 574.337 47.954 620.514 -23.556 C648.373 -66.699 695.798 -105.047 712.625 -117 C740.14 -136.545 772.731 -145.72 795.826 -150.059" fill="freeze" /><g transform="rotate(-644)"><animateTransform repeatCount="indefinite" type="rotate" attributeName="transform" dur="1.92s" begin="0s" calcMode="spline" values="-644; -359; 0; 0" keyTimes="0; 0.520833; 0.833333; 1" keySplines="0 0 1 1; 0 0 1 1; 0 0 1 1" fill="freeze" /><g transform="scale(0.65,0.65)"><animateTransform repeatCount="indefinite" type="scale" attributeName="transform" dur="1.92s" begin="0s" calcMode="spline" values="0.65 0.65; 0.65 0.65; 0.975 0.975; 0.975 0.975" keyTimes="0; 0.520833; 0.833333; 1" keySplines="0 0 1 1; 0 0 1 1; 0 0 1 1" fill="freeze" /><g transform="translate(-166.438,-166.438)"><g transform="matrix(1,0,0,1,14.998,26.324)" id="i8"><g id="i9" transform="matrix(1,0,0,1,94.372,59.587)"><path fill="#ffffff" d="M-52.241,44.45C-53.346,44.107,-54.292,42.883,-54.343,41.723C-54.343,41.723,-57.016,-18.472,-57.016,-18.472C-57.065,-19.627,-56.344,-21.132,-55.407,-21.813C-55.407,-21.813,-5.001,-58.434,-5.001,-58.434C-4.064,-59.111,-2.409,-59.337,-1.323,-58.929C-1.323,-58.929,55.098,-37.789,55.098,-37.789C56.179,-37.382,57.065,-36.101,57.065,-34.945C57.065,-34.945,57.065,13.656,57.065,13.656C57.065,14.813,56.299,16.316,55.364,16.996C55.364,16.996,-1.594,58.38,-1.594,58.38C-2.528,59.058,-4.199,59.337,-5.306,58.994C-5.306,58.994,-52.241,44.45,-52.241,44.45Z" /></g><g id="i10" transform="matrix(1,0,0,1,246.044,168.859)"><path fill="#f2f2ef" d="M37.187,46.233C36.827,47.335,35.616,48.488,34.506,48.798C34.506,48.798,-23.566,64.852,-23.566,64.852C-24.684,65.164,-26.146,64.643,-26.821,63.701C-26.821,63.701,-55.869,23.019,-55.869,23.019C-56.539,22.077,-56.796,20.405,-56.438,19.303C-56.438,19.303,-34.683,-47.653,-34.683,-47.653C-34.326,-48.755,-33.13,-49.935,-32.023,-50.278C-32.023,-50.278,14.912,-64.822,14.912,-64.822C16.019,-65.165,17.51,-64.701,18.235,-63.799C18.235,-63.799,55.776,-16.672,55.776,-16.672C56.499,-15.766,56.796,-14.124,56.438,-13.025C56.438,-13.025,37.187,46.233,37.187,46.233Z" /></g><g id="i11" transform="matrix(1,0,0,1,208.505,59.587)"><path fill="#f2f2ef" d="M5.305,58.994C4.198,59.337,2.53,59.057,1.593,58.379C1.593,58.379,-55.365,16.996,-55.365,16.996C-56.299,16.316,-57.069,14.813,-57.069,13.655C-57.069,13.655,-57.069,-34.946,-57.069,-34.946C-57.069,-36.101,-56.18,-37.382,-55.093,-37.789C-55.093,-37.789,1.324,-58.929,1.324,-58.929C2.408,-59.337,4.063,-59.111,5.003,-58.434C5.003,-58.434,55.408,-21.813,55.408,-21.813C56.343,-21.133,57.069,-19.627,57.013,-18.472C57.013,-18.472,54.347,41.723,54.347,41.723C54.294,42.883,53.347,44.107,52.243,44.45C52.243,44.45,5.305,58.994,5.305,58.994Z" /></g><g id="i12" transform="matrix(1,0,0,1,57.046,168.858)"><path fill="#f2f2ef" d="M26.819,63.702C26.144,64.644,24.681,65.165,23.566,64.853C23.566,64.853,-34.505,48.798,-34.505,48.798C-35.623,48.489,-36.83,47.336,-37.188,46.235C-37.188,46.235,-56.438,-13.024,-56.438,-13.024C-56.796,-14.123,-56.501,-15.766,-55.777,-16.673C-55.777,-16.673,-18.236,-63.798,-18.236,-63.798C-17.513,-64.699,-16.019,-65.164,-14.914,-64.821C-14.914,-64.821,32.02,-50.276,32.02,-50.276C33.127,-49.934,34.323,-48.754,34.678,-47.652C34.678,-47.652,56.435,19.304,56.435,19.304C56.795,20.406,56.534,22.079,55.858,23.021C55.858,23.021,26.819,63.702,26.819,63.702Z" /></g><g id="i4" transform="matrix(1,0,0,1,151.437,239.111)"><path fill="#ffffff" d="M67.575,-6.55C68.245,-5.608,68.276,-4.047,67.638,-3.079C67.638,-3.079,34.419,47.19,34.419,47.19C33.782,48.154,32.307,48.946,31.155,48.946C31.155,48.946,-31.147,48.946,-31.147,48.946C-32.307,48.946,-33.778,48.154,-34.42,47.19C-34.42,47.19,-67.636,-3.079,-67.636,-3.079C-68.276,-4.047,-68.248,-5.608,-67.573,-6.55C-67.573,-6.55,-38.533,-47.232,-38.533,-47.232C-37.857,-48.174,-36.359,-48.946,-35.199,-48.946C-35.199,-48.946,35.199,-48.946,35.199,-48.946C36.357,-48.946,37.857,-48.174,38.53,-47.232C38.53,-47.232,67.575,-6.55,67.575,-6.55Z" /></g></g></g></g></g></g></g><g id="i7"><g transform="translate(-134.038,517.682)"><animateMotion repeatCount="indefinite" dur="1.92s" begin="0s" calcMode="spline" keyTimes="0; 0.1875; 0.333333; 0.479167; 0.666667; 0.770833; 0.833333; 1" keySplines="0 0 1 1; 0 0 1 1; 0 0 1 1; 0 0 1 1; 0 0 1 1; 0 0 1 1; 0 0 1 1" keyPoints="0; 0.304; 0.482; 0.617; 0.807; 0.922; 1; 1" path="M0 0 C0 0 278 213 278 213 C278 213 310.521 84.619 422.625 91 C455.697 92.883 517.292 210.333 538.625 179 C548.342 164.728 574.337 47.954 620.514 -23.556 C648.373 -66.699 695.798 -105.047 712.625 -117 C740.14 -136.545 772.731 -145.72 795.826 -150.059" fill="freeze" /><g transform="rotate(-644)"><animateTransform repeatCount="indefinite" type="rotate" attributeName="transform" dur="1.92s" begin="0s" calcMode="spline" values="-644; -359; 0; 0" keyTimes="0; 0.520833; 0.833333; 1" keySplines="0 0 1 1; 0 0 1 1; 0 0 1 1" fill="freeze" /><g transform="scale(0.65,0.65)"><animateTransform repeatCount="indefinite" type="scale" attributeName="transform" dur="1.92s" begin="0s" calcMode="spline" values="0.65 0.65; 0.65 0.65; 0.975 0.975; 0.975 0.975" keyTimes="0; 0.520833; 0.833333; 1" keySplines="0 0 1 1; 0 0 1 1; 0 0 1 1" fill="freeze" /><g transform="translate(-166.438,-166.438)"><g transform="matrix(1,0,0,1,0.276,-0.531)" id="i13"><g id="i4" transform="matrix(1,0,0,1,166.159,161.262)"><path fill="#161b15" fill-rule="evenodd" d="M-114.081,-93.292C-114.129,-94.447,-115.074,-95.098,-116.175,-94.737C-116.175,-94.737,-135.904,-88.255,-135.904,-88.255C-137.003,-87.897,-138.321,-86.752,-138.833,-85.711C-138.833,-85.711,-165.7,-2.877,-165.7,-2.877C-165.909,-1.737,-165.525,-0.036,-164.85,0.901C-164.85,0.901,-152.715,17.718,-152.715,17.718C-152.035,18.657,-150.892,18.685,-150.169,17.779C-150.169,17.779,-112.626,-29.347,-112.626,-29.347C-111.903,-30.249,-111.357,-31.937,-111.408,-33.097C-111.408,-33.097,-114.081,-93.292,-114.081,-93.292ZM58.393,-133.75C59.477,-134.158,59.804,-135.254,59.122,-136.188C59.122,-136.188,46.837,-152.979,46.837,-152.979C46.154,-153.913,44.671,-154.878,43.536,-155.117C43.536,-155.117,15.816,-161.011,0,-161.011C-15.808,-161.011,-43.534,-155.117,-43.534,-155.117C-44.663,-154.878,-46.148,-153.913,-46.836,-152.979C-46.836,-152.979,-59.118,-136.188,-59.118,-136.188C-59.799,-135.254,-59.474,-134.158,-58.387,-133.75C-58.387,-133.75,-1.967,-112.609,-1.967,-112.609C-0.886,-112.202,0.889,-112.202,1.976,-112.609C1.976,-112.609,58.393,-133.75,58.393,-133.75ZM35.199,55.757C36.357,55.757,37.604,54.855,37.959,53.753C37.959,53.753,59.716,-13.201,59.716,-13.201C60.071,-14.303,59.599,-15.762,58.662,-16.44C58.662,-16.44,1.699,-57.825,1.699,-57.825C0.77,-58.505,-0.766,-58.505,-1.701,-57.825C-1.701,-57.825,-58.659,-16.44,-58.659,-16.44C-59.593,-15.762,-60.068,-14.303,-59.712,-13.201C-59.712,-13.201,-37.956,53.753,-37.956,53.753C-37.595,54.855,-36.359,55.757,-35.199,55.757C-35.199,55.757,35.199,55.757,35.199,55.757ZM138.837,-85.711C138.321,-86.752,137.001,-87.897,135.904,-88.255C135.904,-88.255,116.176,-94.737,116.176,-94.737C115.077,-95.098,114.137,-94.447,114.082,-93.292C114.082,-93.292,111.411,-33.097,111.411,-33.097C111.363,-31.937,111.906,-30.249,112.632,-29.347C112.632,-29.347,150.172,17.779,150.172,17.779C150.895,18.685,152.038,18.657,152.718,17.718C152.718,17.718,164.851,0.904,164.851,0.904C165.531,-0.035,165.909,-1.732,165.701,-2.877C165.701,-2.877,138.837,-85.711,138.837,-85.711ZM34.42,151.892C33.783,152.857,34.158,153.938,35.263,154.291C35.263,154.291,55.075,160.658,55.075,160.658C56.181,161.011,57.911,160.854,58.931,160.305C58.931,160.305,129.334,109.105,129.334,109.105C130.169,108.303,130.85,106.696,130.855,105.535C130.855,105.535,130.918,84.792,130.918,84.792C130.924,83.634,130.015,82.938,128.903,83.248C128.903,83.248,70.827,99.303,70.827,99.303C69.71,99.615,68.276,100.656,67.639,101.623C67.639,101.623,34.42,151.892,34.42,151.892ZM-128.897,83.248C-130.014,82.938,-130.925,83.634,-130.92,84.792C-130.92,84.792,-130.857,105.535,-130.857,105.535C-130.852,106.696,-130.164,108.303,-129.334,109.105C-129.334,109.105,-58.933,160.305,-58.933,160.305C-57.912,160.854,-56.178,161.011,-55.077,160.658C-55.077,160.658,-35.26,154.291,-35.26,154.291C-34.158,153.938,-33.777,152.857,-34.419,151.892C-34.419,151.892,-67.636,101.623,-67.636,101.623C-68.276,100.656,-69.71,99.615,-70.824,99.303C-70.824,99.303,-128.897,83.248,-128.897,83.248Z" /></g></g></g></g></g></g></g></svg>